<mxfile host="app.diagrams.net" modified="2023-11-02T21:26:17.327Z" agent="Mozilla/5.0 (X11; Linux x86_64; rv:91.0) Gecko/20100101 Firefox/91.0" etag="QAILJzenXUvw8vIChqgZ" version="22.0.8" type="device" pages="2">
  <diagram name="Page-1" id="OkTqMcHCDZJsfLIavTye">
    <mxGraphModel dx="1185" dy="654" grid="1" gridSize="10" guides="1" tooltips="1" connect="1" arrows="1" fold="1" page="1" pageScale="1" pageWidth="850" pageHeight="1100" math="0" shadow="0">
      <root>
        <mxCell id="0" />
        <mxCell id="1" parent="0" />
        <mxCell id="JOj1O2APyW84iMub-MP6-20" value="" style="rounded=0;whiteSpace=wrap;html=1;fillColor=none;" vertex="1" parent="1">
          <mxGeometry x="80" y="130" width="600" height="450" as="geometry" />
        </mxCell>
        <mxCell id="JOj1O2APyW84iMub-MP6-25" value="" style="rounded=0;whiteSpace=wrap;html=1;fillColor=none;" vertex="1" parent="1">
          <mxGeometry x="550" y="140" width="120" height="200" as="geometry" />
        </mxCell>
        <mxCell id="JOj1O2APyW84iMub-MP6-24" value="" style="rounded=0;whiteSpace=wrap;html=1;fillColor=none;" vertex="1" parent="1">
          <mxGeometry x="400" y="140" width="120" height="200" as="geometry" />
        </mxCell>
        <mxCell id="JOj1O2APyW84iMub-MP6-1" value="" style="endArrow=none;html=1;rounded=0;" edge="1" parent="1">
          <mxGeometry width="50" height="50" relative="1" as="geometry">
            <mxPoint x="80" y="240" as="sourcePoint" />
            <mxPoint x="680" y="240" as="targetPoint" />
          </mxGeometry>
        </mxCell>
        <mxCell id="JOj1O2APyW84iMub-MP6-2" value="" style="endArrow=none;html=1;rounded=0;entryX=1;entryY=0.5;entryDx=0;entryDy=0;" edge="1" parent="1" target="JOj1O2APyW84iMub-MP6-20">
          <mxGeometry width="50" height="50" relative="1" as="geometry">
            <mxPoint x="80" y="360" as="sourcePoint" />
            <mxPoint x="480" y="360" as="targetPoint" />
          </mxGeometry>
        </mxCell>
        <mxCell id="JOj1O2APyW84iMub-MP6-3" value="" style="endArrow=none;html=1;rounded=0;entryX=0.998;entryY=0.773;entryDx=0;entryDy=0;entryPerimeter=0;" edge="1" parent="1" target="JOj1O2APyW84iMub-MP6-20">
          <mxGeometry width="50" height="50" relative="1" as="geometry">
            <mxPoint x="80" y="480" as="sourcePoint" />
            <mxPoint x="640" y="480" as="targetPoint" />
          </mxGeometry>
        </mxCell>
        <mxCell id="JOj1O2APyW84iMub-MP6-5" value="U-mode" style="text;html=1;strokeColor=none;fillColor=none;align=center;verticalAlign=middle;whiteSpace=wrap;rounded=0;" vertex="1" parent="1">
          <mxGeometry x="85" y="140" width="60" height="30" as="geometry" />
        </mxCell>
        <mxCell id="JOj1O2APyW84iMub-MP6-6" value="S-mode" style="text;html=1;strokeColor=none;fillColor=none;align=center;verticalAlign=middle;whiteSpace=wrap;rounded=0;" vertex="1" parent="1">
          <mxGeometry x="85" y="240" width="60" height="30" as="geometry" />
        </mxCell>
        <mxCell id="JOj1O2APyW84iMub-MP6-7" value="M-mode" style="text;html=1;strokeColor=none;fillColor=none;align=center;verticalAlign=middle;whiteSpace=wrap;rounded=0;" vertex="1" parent="1">
          <mxGeometry x="85" y="360" width="60" height="30" as="geometry" />
        </mxCell>
        <mxCell id="JOj1O2APyW84iMub-MP6-8" value="Trusted Hardware" style="text;html=1;strokeColor=none;fillColor=none;align=center;verticalAlign=middle;whiteSpace=wrap;rounded=0;" vertex="1" parent="1">
          <mxGeometry x="85" y="490" width="70" height="30" as="geometry" />
        </mxCell>
        <mxCell id="JOj1O2APyW84iMub-MP6-9" value="Приложение 1" style="rounded=0;whiteSpace=wrap;html=1;fillColor=#f8cecc;strokeColor=#b85450;" vertex="1" parent="1">
          <mxGeometry x="120" y="170" width="100" height="50" as="geometry" />
        </mxCell>
        <mxCell id="JOj1O2APyW84iMub-MP6-10" value="Приложение N" style="rounded=0;whiteSpace=wrap;html=1;fillColor=#f8cecc;strokeColor=#b85450;" vertex="1" parent="1">
          <mxGeometry x="260" y="170" width="100" height="50" as="geometry" />
        </mxCell>
        <mxCell id="JOj1O2APyW84iMub-MP6-11" value="Операционная система" style="rounded=0;whiteSpace=wrap;html=1;fillColor=#f8cecc;strokeColor=#b85450;" vertex="1" parent="1">
          <mxGeometry x="120" y="270" width="240" height="50" as="geometry" />
        </mxCell>
        <mxCell id="JOj1O2APyW84iMub-MP6-12" value="Runtime" style="rounded=0;whiteSpace=wrap;html=1;fillColor=#d5e8d4;strokeColor=#82b366;" vertex="1" parent="1">
          <mxGeometry x="410" y="270" width="100" height="50" as="geometry" />
        </mxCell>
        <mxCell id="JOj1O2APyW84iMub-MP6-13" value="Приложение анклава 1" style="rounded=0;whiteSpace=wrap;html=1;fillColor=#d5e8d4;strokeColor=#82b366;" vertex="1" parent="1">
          <mxGeometry x="410" y="170" width="100" height="50" as="geometry" />
        </mxCell>
        <mxCell id="JOj1O2APyW84iMub-MP6-14" value="Приложение анклава N" style="rounded=0;whiteSpace=wrap;html=1;fillColor=#d5e8d4;strokeColor=#82b366;" vertex="1" parent="1">
          <mxGeometry x="560" y="170" width="100" height="50" as="geometry" />
        </mxCell>
        <mxCell id="JOj1O2APyW84iMub-MP6-15" value="Runtime N" style="rounded=0;whiteSpace=wrap;html=1;fillColor=#d5e8d4;strokeColor=#82b366;" vertex="1" parent="1">
          <mxGeometry x="560" y="270" width="100" height="50" as="geometry" />
        </mxCell>
        <mxCell id="JOj1O2APyW84iMub-MP6-16" value="Security Monitor" style="rounded=0;whiteSpace=wrap;html=1;fillColor=#fff2cc;strokeColor=#d6b656;" vertex="1" parent="1">
          <mxGeometry x="120" y="390" width="520" height="60" as="geometry" />
        </mxCell>
        <mxCell id="JOj1O2APyW84iMub-MP6-17" value="RISC-V ядра" style="rounded=0;whiteSpace=wrap;html=1;fillColor=#dae8fc;strokeColor=#6c8ebf;" vertex="1" parent="1">
          <mxGeometry x="160" y="500" width="100" height="50" as="geometry" />
        </mxCell>
        <mxCell id="JOj1O2APyW84iMub-MP6-18" value="Доверенные ключи" style="rounded=0;whiteSpace=wrap;html=1;fillColor=#dae8fc;strokeColor=#6c8ebf;" vertex="1" parent="1">
          <mxGeometry x="340" y="500" width="97.5" height="50" as="geometry" />
        </mxCell>
        <mxCell id="JOj1O2APyW84iMub-MP6-19" value="Опциональное аппаратное обеспечение" style="rounded=0;whiteSpace=wrap;html=1;fillColor=#dae8fc;strokeColor=#6c8ebf;" vertex="1" parent="1">
          <mxGeometry x="520" y="500" width="100" height="50" as="geometry" />
        </mxCell>
        <mxCell id="JOj1O2APyW84iMub-MP6-26" value="" style="endArrow=none;dashed=1;html=1;dashPattern=1 3;strokeWidth=2;rounded=0;exitX=1;exitY=0.25;exitDx=0;exitDy=0;entryX=0;entryY=0.25;entryDx=0;entryDy=0;" edge="1" parent="1" source="JOj1O2APyW84iMub-MP6-24" target="JOj1O2APyW84iMub-MP6-25">
          <mxGeometry width="50" height="50" relative="1" as="geometry">
            <mxPoint x="540" y="380" as="sourcePoint" />
            <mxPoint x="590" y="330" as="targetPoint" />
          </mxGeometry>
        </mxCell>
        <mxCell id="JOj1O2APyW84iMub-MP6-28" value="Анклав 1" style="text;html=1;strokeColor=none;fillColor=none;align=center;verticalAlign=middle;whiteSpace=wrap;rounded=0;" vertex="1" parent="1">
          <mxGeometry x="430" y="140" width="60" height="30" as="geometry" />
        </mxCell>
        <mxCell id="JOj1O2APyW84iMub-MP6-29" value="Анклав N" style="text;html=1;strokeColor=none;fillColor=none;align=center;verticalAlign=middle;whiteSpace=wrap;rounded=0;" vertex="1" parent="1">
          <mxGeometry x="580" y="140" width="60" height="30" as="geometry" />
        </mxCell>
      </root>
    </mxGraphModel>
  </diagram>
  <diagram id="4FgcxJXZQhHZofXIflqC" name="Page-2">
    <mxGraphModel dx="1418" dy="152" grid="1" gridSize="10" guides="1" tooltips="1" connect="1" arrows="1" fold="1" page="1" pageScale="1" pageWidth="850" pageHeight="1100" math="0" shadow="0">
      <root>
        <mxCell id="0" />
        <mxCell id="1" parent="0" />
        <mxCell id="xSdkKAd-Ea8kS6nGba4q-6" value="" style="rounded=0;whiteSpace=wrap;html=1;fillColor=none;" vertex="1" parent="1">
          <mxGeometry y="40" width="600" height="40" as="geometry" />
        </mxCell>
        <mxCell id="pfH2fL70M7tAfFZwxAL3-3" value="" style="endArrow=none;html=1;rounded=0;" edge="1" parent="1">
          <mxGeometry width="50" height="50" relative="1" as="geometry">
            <mxPoint y="200" as="sourcePoint" />
            <mxPoint x="600" y="200" as="targetPoint" />
          </mxGeometry>
        </mxCell>
        <mxCell id="pfH2fL70M7tAfFZwxAL3-4" value="" style="endArrow=none;html=1;rounded=0;" edge="1" parent="1">
          <mxGeometry width="50" height="50" relative="1" as="geometry">
            <mxPoint y="320" as="sourcePoint" />
            <mxPoint x="600" y="320" as="targetPoint" />
          </mxGeometry>
        </mxCell>
        <mxCell id="pfH2fL70M7tAfFZwxAL3-5" value="" style="rounded=0;whiteSpace=wrap;html=1;fillColor=none;" vertex="1" parent="1">
          <mxGeometry y="80" width="600" height="360" as="geometry" />
        </mxCell>
        <mxCell id="pfH2fL70M7tAfFZwxAL3-6" value="Создание" style="text;html=1;strokeColor=none;fillColor=none;align=center;verticalAlign=middle;whiteSpace=wrap;rounded=0;" vertex="1" parent="1">
          <mxGeometry x="20" y="130" width="60" height="30" as="geometry" />
        </mxCell>
        <mxCell id="pfH2fL70M7tAfFZwxAL3-7" value="Выполнение" style="text;html=1;strokeColor=none;fillColor=none;align=center;verticalAlign=middle;whiteSpace=wrap;rounded=0;" vertex="1" parent="1">
          <mxGeometry x="10" y="245" width="80" height="30" as="geometry" />
        </mxCell>
        <mxCell id="pfH2fL70M7tAfFZwxAL3-8" value="Разрушение" style="text;html=1;strokeColor=none;fillColor=none;align=center;verticalAlign=middle;whiteSpace=wrap;rounded=0;" vertex="1" parent="1">
          <mxGeometry x="10" y="370" width="80" height="30" as="geometry" />
        </mxCell>
        <mxCell id="pfH2fL70M7tAfFZwxAL3-9" value="" style="endArrow=none;html=1;rounded=0;entryX=0.75;entryY=0;entryDx=0;entryDy=0;exitX=0.75;exitY=1;exitDx=0;exitDy=0;" edge="1" parent="1">
          <mxGeometry width="50" height="50" relative="1" as="geometry">
            <mxPoint x="430" y="440" as="sourcePoint" />
            <mxPoint x="430" y="80" as="targetPoint" />
          </mxGeometry>
        </mxCell>
        <mxCell id="pfH2fL70M7tAfFZwxAL3-10" value="&lt;div align=&quot;left&quot;&gt;&lt;ul&gt;&lt;li&gt;Выделить память&lt;/li&gt;&lt;li&gt;Загрузить исполняемый файл&lt;/li&gt;&lt;li&gt;Создать анклав&lt;/li&gt;&lt;li&gt;Пометить готовым к исполнению&lt;/li&gt;&lt;/ul&gt;&lt;/div&gt;" style="text;html=1;strokeColor=none;fillColor=none;align=left;verticalAlign=middle;whiteSpace=wrap;rounded=0;" vertex="1" parent="1">
          <mxGeometry x="417.5" y="100" width="203.75" height="90" as="geometry" />
        </mxCell>
        <mxCell id="pfH2fL70M7tAfFZwxAL3-11" value="&lt;ul&gt;&lt;li&gt;Исполнять код анклава&lt;/li&gt;&lt;li&gt;Прервать/возобновить исполнение&lt;/li&gt;&lt;li&gt;Остановить исполнение&lt;/li&gt;&lt;/ul&gt;" style="text;html=1;strokeColor=none;fillColor=none;align=left;verticalAlign=middle;whiteSpace=wrap;rounded=0;" vertex="1" parent="1">
          <mxGeometry x="410" y="245" width="190" height="30" as="geometry" />
        </mxCell>
        <mxCell id="pfH2fL70M7tAfFZwxAL3-14" value="&lt;ul&gt;&lt;li&gt;Уничтожить анклав&lt;/li&gt;&lt;li&gt;Освободить память&lt;/li&gt;&lt;/ul&gt;" style="text;html=1;strokeColor=none;fillColor=none;align=left;verticalAlign=middle;whiteSpace=wrap;rounded=0;" vertex="1" parent="1">
          <mxGeometry x="417.5" y="360" width="190" height="30" as="geometry" />
        </mxCell>
        <mxCell id="pfH2fL70M7tAfFZwxAL3-15" value="Свободная память" style="rounded=0;whiteSpace=wrap;html=1;fillColor=none;" vertex="1" parent="1">
          <mxGeometry x="160" y="100" width="220" height="30" as="geometry" />
        </mxCell>
        <mxCell id="pfH2fL70M7tAfFZwxAL3-16" value="Таблица страниц" style="rounded=0;whiteSpace=wrap;html=1;fillColor=none;" vertex="1" parent="1">
          <mxGeometry x="160" y="150" width="100" height="30" as="geometry" />
        </mxCell>
        <mxCell id="pfH2fL70M7tAfFZwxAL3-17" value="RT" style="rounded=0;whiteSpace=wrap;html=1;fillColor=none;" vertex="1" parent="1">
          <mxGeometry x="260" y="150" width="40" height="30" as="geometry" />
        </mxCell>
        <mxCell id="pfH2fL70M7tAfFZwxAL3-18" value="EAPP" style="rounded=0;whiteSpace=wrap;html=1;fillColor=none;" vertex="1" parent="1">
          <mxGeometry x="300" y="150" width="40" height="30" as="geometry" />
        </mxCell>
        <mxCell id="pfH2fL70M7tAfFZwxAL3-19" value="Free" style="rounded=0;whiteSpace=wrap;html=1;fillColor=none;" vertex="1" parent="1">
          <mxGeometry x="340" y="150" width="40" height="30" as="geometry" />
        </mxCell>
        <mxCell id="pfH2fL70M7tAfFZwxAL3-20" value="Память анклава (защищена)" style="rounded=0;whiteSpace=wrap;html=1;fillColor=none;" vertex="1" parent="1">
          <mxGeometry x="160" y="270" width="220" height="30" as="geometry" />
        </mxCell>
        <mxCell id="pfH2fL70M7tAfFZwxAL3-21" value="0000 .... 0000" style="rounded=0;whiteSpace=wrap;html=1;fillColor=none;" vertex="1" parent="1">
          <mxGeometry x="160" y="390" width="220" height="30" as="geometry" />
        </mxCell>
        <mxCell id="pfH2fL70M7tAfFZwxAL3-22" value="Свободная память" style="rounded=0;whiteSpace=wrap;html=1;fillColor=none;" vertex="1" parent="1">
          <mxGeometry x="160" y="340" width="220" height="30" as="geometry" />
        </mxCell>
        <mxCell id="pfH2fL70M7tAfFZwxAL3-23" value="Свободная память" style="rounded=0;whiteSpace=wrap;html=1;fillColor=none;" vertex="1" parent="1">
          <mxGeometry x="160" y="220" width="220" height="30" as="geometry" />
        </mxCell>
        <mxCell id="xSdkKAd-Ea8kS6nGba4q-1" value="Команды" style="text;html=1;strokeColor=none;fillColor=none;align=center;verticalAlign=middle;whiteSpace=wrap;rounded=0;" vertex="1" parent="1">
          <mxGeometry x="482.5" y="47" width="60" height="30" as="geometry" />
        </mxCell>
        <mxCell id="xSdkKAd-Ea8kS6nGba4q-2" value="Карта памяти" style="text;html=1;strokeColor=none;fillColor=none;align=center;verticalAlign=middle;whiteSpace=wrap;rounded=0;" vertex="1" parent="1">
          <mxGeometry x="190" y="47" width="150" height="30" as="geometry" />
        </mxCell>
        <mxCell id="xSdkKAd-Ea8kS6nGba4q-3" value="" style="endArrow=none;html=1;rounded=0;exitX=0.167;exitY=1.008;exitDx=0;exitDy=0;exitPerimeter=0;entryX=0.167;entryY=0.006;entryDx=0;entryDy=0;entryPerimeter=0;" edge="1" parent="1" source="pfH2fL70M7tAfFZwxAL3-5" target="pfH2fL70M7tAfFZwxAL3-5">
          <mxGeometry width="50" height="50" relative="1" as="geometry">
            <mxPoint x="430" y="370" as="sourcePoint" />
            <mxPoint x="480" y="320" as="targetPoint" />
          </mxGeometry>
        </mxCell>
        <mxCell id="xSdkKAd-Ea8kS6nGba4q-5" value="Состояние анклава" style="text;html=1;strokeColor=none;fillColor=none;align=center;verticalAlign=middle;whiteSpace=wrap;rounded=0;" vertex="1" parent="1">
          <mxGeometry y="47" width="107" height="30" as="geometry" />
        </mxCell>
      </root>
    </mxGraphModel>
  </diagram>
</mxfile>
